<svg width="1024" height="1024" viewBox="0 0 1024 1024" fill="none" xmlns="http://www.w3.org/2000/svg">
<g clip-path="url(#clip0_1_4)">
<path d="M0 0H1024V1024H0V0Z" fill="#2B3A8C"/>
<path d="M192.678 666.425C194.652 665.61 211.987 665.28 214.997 665.26L620.765 665.265L742.41 665.085C758.07 665.125 783.095 663.85 797.75 665.86C809.36 665.9 827.37 665.45 838.49 666.33L838.405 665.725C845.745 664.63 858.96 668.12 864.925 672.705C869.94 676.555 879.505 690.49 879.83 696.51C882.025 701.08 889.88 716.38 892.73 720.075C895.535 720.99 910.77 751.415 913.535 755.91C913.89 756.49 913.86 756.49 913.99 757.125C920.495 769.21 930.915 784.845 935.485 797.405C939.64 807.34 937.38 834.83 937.505 846.915C937.69 864.63 938.05 883.525 937.435 901.15C930.385 909.615 923.94 912.365 912.92 912.4C904.18 912.43 895.4 912.245 886.66 912.22L829.835 912.2L645.425 912.205L279.621 912.2L163.799 912.205L125.894 912.195C119.137 912.175 109.834 912.36 103.237 911.82C100.691 911.62 98.189 911.045 95.8135 910.105C86.5545 906.54 83.813 901.675 83.9235 891.99C84.2475 863.645 84.1955 835.3 84.243 806.98C84.2505 802.58 87.209 795.78 88.9515 791.905C90.219 788.85 96.8635 774.485 98.025 772.5C102.832 764.275 129.046 701.615 132.171 699.615C135.864 693.36 138.667 682.24 143.658 677.425C155.551 665.955 177.554 666.445 192.678 666.425Z" fill="#010101"/>
<path d="M88.9515 791.905L90.045 792.01C86.737 799.335 84.7875 805.065 90.433 811.83C93.741 810.35 167.493 809.8 175.143 810.075C181.015 812.155 233.906 810.555 244.077 810.535L379.034 810.52L713.745 810.535L810.375 810.955C823.5 810.99 849.51 811.66 861.73 809.94C876.945 810.23 892.67 809.98 907.905 809.825C915.02 809.755 927.18 807.76 933.56 808.2C936.095 804.925 935.39 801.08 934.3 797.485L935.485 797.405C939.64 807.34 937.38 834.83 937.505 846.915C937.69 864.63 938.05 883.525 937.435 901.15C930.385 909.615 923.94 912.365 912.92 912.4C904.18 912.43 895.4 912.245 886.66 912.22L829.835 912.2L645.425 912.205L279.621 912.2L163.799 912.205L125.894 912.195C119.137 912.175 109.834 912.36 103.237 911.82C100.691 911.62 98.189 911.045 95.8135 910.105C86.5545 906.54 83.813 901.675 83.9235 891.99C84.2475 863.645 84.1955 835.3 84.243 806.98C84.2505 802.58 87.209 795.78 88.9515 791.905Z" fill="#010101"/>
<path d="M861.73 809.94C876.945 810.23 892.67 809.98 907.905 809.825C915.02 809.755 927.18 807.76 933.56 808.2C928.68 814.12 920.82 817.515 913.31 818.095C900.72 819.06 887.4 818.655 874.735 818.605L813.26 818.495L606.33 818.48L274.332 818.5L168.103 818.6C148.833 818.63 129.472 818.885 110.202 818.49C103.17 818.345 96.398 815.5 90.433 811.83C93.741 810.35 167.492 809.8 175.143 810.075C181.015 812.155 233.905 810.555 244.077 810.535L379.034 810.52L713.745 810.535L810.375 810.955C823.5 810.99 849.51 811.66 861.73 809.94Z" fill="#D3D2D3"/>
<path d="M87.419 811.93C103.169 823.715 126.888 820.74 145.609 820.51L191.475 820.395L388.562 819.93L737.52 820.05L844.795 820.305C867.5 820.38 890.27 820.89 912.945 819.795C922.305 819.345 926.745 816.795 934.095 811.49C935.11 819.99 934.94 835.97 934.9 844.76C934.78 863.145 934.54 881.535 934.18 899.92C927.115 910.255 918.15 908.62 907.205 909.04C901.455 909.255 895.745 909.435 889.98 909.47L383.814 909.24L195.373 909.48L135.772 909.49C125.158 909.495 114.438 909.635 103.837 909.26C98.6345 909.08 93.3975 906.545 89.773 902.895C88.1525 901.26 87.8385 899.945 87.5685 897.705C86.4145 886.16 87.2345 874.08 87.381 862.5C87.486 845.645 87.4985 828.785 87.419 811.93Z" fill="#095849"/>
<path d="M508.49 835.655C526.545 833.81 542.65 847.015 544.39 865.08C546.125 883.145 532.83 899.175 514.755 900.805C496.83 902.42 480.963 889.26 479.24 871.345C477.517 853.43 490.585 837.485 508.49 835.655Z" fill="#010101"/>
<path d="M509.24 837.225C526.37 835.84 541.375 848.605 542.76 865.73C544.14 882.855 531.38 897.86 514.255 899.245C497.126 900.63 482.118 887.87 480.735 870.74C479.351 853.615 492.114 838.605 509.24 837.225Z" fill="#FEFEFE"/>
<path d="M192.678 666.425C194.652 665.61 211.987 665.28 214.997 665.26L620.765 665.265L742.41 665.085C758.07 665.125 783.095 663.85 797.75 665.86C809.36 665.9 827.37 665.45 838.49 666.33L838.405 665.725C845.745 664.63 858.96 668.12 864.925 672.705C869.94 676.555 879.505 690.49 879.83 696.51C882.025 701.08 889.88 716.38 892.73 720.075C895.535 720.99 910.77 751.415 913.535 755.91C913.89 756.49 913.86 756.49 913.99 757.125C920.495 769.21 930.915 784.845 935.485 797.405L934.3 797.485C935.39 801.08 936.095 804.925 933.56 808.2C927.18 807.76 915.02 809.755 907.905 809.825C892.67 809.98 876.945 810.23 861.73 809.94L836.085 737.18C829.22 717.14 822.295 691.72 811.77 673.62C799.115 672.165 786.92 672.765 774.25 672.85L729.525 672.91L562.755 672.875L333.353 672.865L263.583 672.645C250.838 672.565 234.422 672.01 221.959 672.775C210.81 701.53 201.104 731.91 191.198 761.185L181.544 789.455C179.387 795.76 176.514 803.635 175.143 810.075C167.492 809.8 93.741 810.35 90.433 811.83C84.7875 805.065 86.737 799.335 90.045 792.01L88.9515 791.905C90.219 788.85 96.8635 774.485 98.025 772.5C102.831 764.275 129.046 701.615 132.171 699.615C135.864 693.36 138.666 682.24 143.657 677.425C155.551 665.955 177.554 666.445 192.678 666.425Z" fill="#FEFEFE"/>
<path d="M192.678 666.425C194.652 665.61 211.987 665.28 214.997 665.26L620.765 665.265L742.41 665.085C758.07 665.125 783.095 663.85 797.75 665.86C709.865 666.575 621.98 666.685 534.09 666.195L192.678 666.425Z" fill="#2B3B8B"/>
<path d="M88.9515 791.905C90.219 788.85 96.8635 774.485 98.025 772.5C102.832 764.275 129.046 701.615 132.172 699.615C127.743 711.12 121.509 724.47 116.4 735.76C107.898 754.64 99.1115 773.395 90.045 792.01L88.9515 791.905Z" fill="#010101"/>
<path d="M913.375 758.085L913.99 757.125C920.495 769.21 930.915 784.845 935.485 797.405L934.3 797.485C929.615 786.76 919.14 768.64 913.375 758.085Z" fill="#010101"/>
<path d="M838.49 666.33L838.405 665.725C845.745 664.63 858.96 668.12 864.925 672.705C869.94 676.555 879.505 690.49 879.83 696.51C867.54 673.33 865.63 669.465 838.49 666.33Z" fill="#010101"/>
<path d="M892.73 720.075C895.535 720.99 910.77 751.415 913.535 755.91C913.89 756.49 913.86 756.49 913.99 757.125L913.375 758.085C908.005 749.435 897.11 729.13 892.73 720.075Z" fill="#192046"/>
<path d="M157.886 728.715C164.665 727.73 189.671 729.045 190.198 738.695L189.546 739.1L188.935 738.84C187.611 733.97 187.178 735.115 182.839 732.85C173.869 728.16 132.842 728.185 128.756 738.135C129.804 744.415 144.858 746.335 150.118 746.62C158.838 748.055 168.316 746.405 176.869 744.775C178.621 744.445 182.944 743.29 184.28 743.24C181.603 745.225 179.045 744.995 175.867 745.76C162.823 748.9 148.244 748.735 135.424 744.74C132.427 743.805 125.22 739.51 128.961 736.02C135.335 730.065 149.658 729.35 157.886 728.715Z" fill="#626261"/>
<path d="M222.869 673.92L591.94 673.975C664.135 674.03 737.72 675.175 809.81 673.77C817.215 682.44 827.42 715.83 831.61 727.925L859.805 809.405L814.185 809.465L176.805 809.315C191.554 764.34 207.579 718.78 222.869 673.92Z" fill="#F594B4"/>
<path d="M373.501 702.22C394.983 701.705 418.861 702.085 440.48 702.22L440.498 726.39L399.631 726.48L399.965 734.46L437.961 734.49C437.996 741.86 438.149 749.23 438.421 756.595C426.972 757.185 415.341 756.82 403.876 756.545C401.603 756.525 401.31 756.67 399.851 758.18C398.952 760.56 399.319 763.195 399.421 765.81C413.327 765.905 427.315 765.565 441.254 765.575L441.445 787.975H372.673C372.657 775.73 371.459 707.185 373.501 702.22Z" fill="#010101"/>
<path d="M376.518 705.96L436.469 705.97L436.486 721.945C422.973 721.85 409.46 721.835 395.947 721.895C395.816 727.065 395.922 732.755 395.924 737.96L433.927 737.965L433.901 753.04C423.173 752.455 412.095 752.43 401.341 752.315L395.831 752.05C395.67 757.56 395.816 763.46 395.854 769H437.776C437.733 773.98 437.658 778.955 437.551 783.93C418.051 783.515 396.607 783.815 377.053 783.98C375.541 760.25 376.469 730.06 376.518 705.96Z" fill="#095849"/>
<path d="M568.04 700.22C585.48 700.68 596.595 709.56 606.23 723.42C599.66 727.955 592.205 731.995 585.31 736.74C581.135 730.645 576.135 724.425 568.02 724.325C541.57 724.005 543.795 765.89 568.475 765.37C575.155 765.23 580.345 759.04 584.265 754.255C589.115 757.295 593.92 760.415 598.675 763.605C601.17 765.415 603.565 767.375 605.975 769.295C605.315 770.13 604.65 770.96 603.97 771.78C597.455 779.66 590.15 785.445 580.085 787.995C551.84 795.155 522.655 777.95 520.585 747.74C519.84 736.085 523.745 724.615 531.44 715.83C541 704.965 554.01 701.085 568.04 700.22Z" fill="#010101"/>
<path d="M564.225 704.165C580.455 702.49 591.235 710.92 601.435 722.41C596.415 725.155 591.47 728.035 586.605 731.045C582.615 725.71 577.7 721.19 570.875 720.08C565.235 719.16 559.345 720.78 554.83 724.24C549.32 728.47 545.925 735.11 545.1 741.95C544.295 748.625 545.865 755.8 550.24 761.025C552.52 763.75 555.5 765.93 558.73 767.415C574.365 774.625 581.11 760 587.625 761.16C587.83 761.195 588.02 761.275 588.215 761.33C593.135 764.16 597.005 766.775 601.35 770.4C592.97 777.785 584.855 783.27 573.59 785.31C562.525 787.415 551.085 784.865 541.96 778.265C532.875 771.83 526.77 761.995 525.04 751C520.665 724.465 539.555 707.82 564.225 704.165Z" fill="#095849"/>
<path d="M453.603 702.055C462.902 701.98 472.201 701.95 481.499 701.975L481.44 764.345L518.05 764.415C518.735 771.305 518.5 780.815 518.49 787.965L453.494 788.04L453.603 702.055Z" fill="#010101"/>
<path d="M457.759 705.93L477.472 705.99L477.381 767.94C487.528 769.045 503.37 768.525 513.94 768.465C514.05 773.64 514.11 778.82 514.13 783.995C495.397 783.885 476.662 783.87 457.927 783.96C457.139 760.065 457.008 729.905 457.759 705.93Z" fill="#095849"/>
<path d="M613.725 702.435C622.89 702.32 632.33 702.45 641.52 702.465L641.505 788.075L613.52 787.99L613.725 702.435Z" fill="#010101"/>
<path d="M617.485 705.965C624.215 705.89 631.055 705.955 637.8 705.955L637.48 783.545C632.53 784.305 622.855 784.005 617.565 783.975L617.485 705.965Z" fill="#095849"/>
<path d="M263.276 763.68C305.99 759.525 318.417 787.79 273.43 791.555C233.146 796.53 213.542 770.19 263.276 763.68Z" fill="#010101"/>
<path d="M264.839 765.21C303.953 761.215 315.853 785.79 270.128 790.295C230.836 792.79 220.372 768.915 264.839 765.21Z" fill="#88151E"/>
<path d="M752.775 762.66C763.22 760.91 794.78 765.435 796.7 778.145C796.93 779.725 796.51 781.335 795.545 782.605C791.595 787.835 779.32 789.325 773.155 790.19C763.37 790.795 747.865 789.595 739.21 784.825C713.905 770.89 739.83 764.69 752.775 762.66Z" fill="#010101"/>
<path d="M756.315 764.205C763.485 763.13 784.07 766.29 789.485 771.405C804.01 785.12 778.425 787.64 770.395 788.115C760.23 788.17 746.415 787.295 737.795 781.66C717.62 768.465 748.96 765.035 756.315 764.205Z" fill="#88151E"/>
<path d="M275.882 727.19C312.222 724.12 328.487 746.345 283.123 752.93C273.025 754.25 259.48 753.52 250.919 747.26C247.143 744.5 245.445 739.25 248.997 735.635C255.241 729.275 267.541 727.93 275.882 727.19Z" fill="#004DFE"/>
<path d="M774.62 732.67C784.855 736.41 790.84 745.775 776.895 750.005C761.92 754.55 743.34 754.7 728.98 748.27C716.255 741.615 716.985 733.23 731.11 729.54C743.23 726.375 762.32 725.385 773.615 732.19L774.62 732.67Z" fill="#004DFE"/>
<path d="M774.62 732.67C784.855 736.41 790.84 745.775 776.895 750.005C761.92 754.55 743.34 754.7 728.98 748.27C716.255 741.615 716.985 733.23 731.11 729.54C743.23 726.375 762.32 725.385 773.615 732.19C758.665 728.035 741.785 725.105 727.09 732.71C716.045 738.43 725.135 744.93 732.23 747.62C741.61 751.49 751.6 752.26 761.615 751.375C768.885 750.735 791.575 746.84 778.68 735.87C777.435 734.805 775.73 733.775 774.62 732.67Z" fill="#010101"/>
<path d="M738.13 695.705C748.505 695.935 759.945 697.03 768.785 703.06C772.065 705.085 775.64 710.39 771.93 713.8C766.135 719.13 754.21 719.435 746.99 719.695C737.955 719.635 721.575 718.5 714.745 712.46C699.215 698.725 732.445 696.175 738.13 695.705Z" fill="#010101"/>
<path d="M737.985 697.21C764.77 696.715 793.32 714.275 747.77 718.45C737.025 718.115 724.215 717.375 715.25 710.6C712.97 708.925 711.365 705.26 713.925 703.06C719.645 698.15 730.945 697.64 737.985 697.21Z" fill="#FEF701"/>
<path d="M280.57 697.19C287.42 696.54 310.192 695.635 312.439 705.47C314.482 714.415 296.095 716.625 289.948 717.455C286.784 717.55 251.068 718.525 257.11 704.98C259.017 700.705 275.029 697.845 280.57 697.19Z" fill="#FEF701"/>
<path d="M492.025 139.708C492.972 139.609 493.806 139.551 494.752 139.519C565.99 137.124 637.29 163.125 690.245 210.834C694.025 214.243 696.27 219.025 697.47 223.887C700.225 235.042 702.125 246.581 704.17 257.88C707.555 276.989 711.115 296.066 714.855 315.108C720.06 341.272 727.65 367.652 731.92 394.073C732.795 399.481 732.62 408.424 732.67 414.229L733.005 440.477C695.05 439.939 656.225 440.225 618.22 440.163L394.974 439.975C409.888 459.236 421.884 472.255 443.608 484.88C479.782 506.11 522.92 512.07 563.495 501.445C583.655 495.984 606.385 484.853 619.675 468.366C624.105 462.875 626.72 458.362 630.19 452.327C640.5 452.815 653.59 452.492 664.075 452.482L738.99 451.849C741.1 461.17 742.83 468.615 743.935 478.117C744.285 487.01 745.335 509.955 743.56 518.21C741.115 529.545 725.385 549.93 717.62 559.31C675.19 610.585 613.705 639.175 547.995 645.22C476.493 652.235 405.135 630.555 349.619 584.95C305.573 548.29 275.051 495.16 269.92 437.685C269.017 427.549 268.868 417.359 269.475 407.2C269.791 402.626 271.161 391.581 271.023 387.75C270.55 374.607 269.382 363.385 269.963 350.115C272.15 302.829 289.942 257.602 320.558 221.501C365.791 167.63 423.439 145.745 492.025 139.708Z" fill="#010101"/>
<path d="M503.18 181.281C545.17 178.573 593.085 193.554 628.18 216.325C669.56 243.135 700.18 283.659 714.67 330.788C720.475 349.645 724.66 373.284 728.88 392.972L371.127 392.996C374.922 407.67 379.344 420.412 387.187 433.534C408.422 469.063 444.356 494.772 484.459 504.57C526.66 514.88 565.335 509.225 602.49 486.861C617.135 476.698 622.635 471.343 631.43 456.019C649.195 457.467 676.98 456.306 695.485 456.115C688.275 470.168 679.235 483.205 668.6 494.886C633.805 533.37 582.11 552.235 531.13 554.69C474.62 557.485 419.338 537.58 377.575 499.412C340.67 466.244 318.532 419.717 316.073 370.158C313.963 322.143 331.345 277.019 363.949 242.09C400.509 202.923 450.455 183.574 503.18 181.281Z" fill="#F594B4"/>
<path d="M505.825 225.701C525.83 222.841 558.98 231.153 577.405 239.516C609.15 254.078 635.255 278.632 651.73 309.427C657.03 319.385 660.8 329.399 664.78 339.93C619.77 340.367 574.76 340.403 529.75 340.039L369.174 340.049C374.178 317.028 378.85 298.853 394.16 280.267C424.308 243.668 460.763 230.225 505.825 225.701Z" fill="#010101"/>
<path d="M502.06 269.25C511.08 268.045 530.875 269.945 539.935 272.035C581.24 281.56 607.92 302.225 630.48 336.625C613.855 336.24 597.355 336.664 580.75 336.777L516.56 336.815C473.665 336.318 430.769 336.371 387.877 336.974C391.522 331.258 395.502 325.764 399.797 320.52C426.913 287.417 460.388 273.398 502.06 269.25Z" fill="#2B3B8B"/>
<path d="M508.66 228.203C526.185 225.834 557.78 234.446 574.58 241.763C607.045 255.943 633.585 280.953 649.665 312.523C653.845 320.567 656.67 327.823 659.99 336.242C651.57 336.109 642.63 336.361 634.175 336.466C631.595 331.709 627.97 326.619 624.625 322.395C598.545 289.475 564.625 271.469 523.115 266.54C506.91 265.114 490.579 266.317 474.757 270.103C437.415 279.134 404.284 304.787 384.273 337.364C380.46 337.388 376.647 337.389 372.834 337.366C374.637 318.95 384.831 296.271 396.675 282.205C428.233 244.726 462.659 233.106 508.66 228.203Z" fill="#2B3B8B"/>
<path d="M489.791 142.701C496.908 141.368 514.86 142.473 522.265 142.93C574.265 146.138 625.21 165.087 667.215 195.8C674.185 201.31 685.935 208.192 690.575 215.922C695.93 224.853 697.69 241.734 699.585 252.048C702.985 270.181 706.18 288.351 709.17 306.556C705.07 298.806 701.25 290.392 696.815 282.865C681.155 256.697 660 234.239 634.815 217.041C586.04 183.588 525.87 171.144 467.827 182.507C417.176 192.05 372.346 221.217 343.098 263.658C284.278 350.322 315.213 463.347 399.412 520.765C452.156 556.735 509.88 564.27 571.875 552.15C576.215 551.175 580.525 550.085 584.8 548.87C621.565 538.36 657.59 515.7 681.13 485.37C688.575 475.776 693.7 466.653 699.54 456.097L735.63 456.132C737.14 462.77 738.705 469.395 740.32 476.008C733.91 489.074 723.61 504.245 714.46 515.455C674.38 564.535 615.96 592.915 553.255 598.995C484.033 605.78 414.986 584.485 361.613 539.885C312.355 499.255 279.914 442.017 273.836 378.171C268.676 322.954 285.735 267.958 321.237 225.354C354.148 185.861 399.408 158.612 449.71 148.004C462.938 145.203 476.344 143.947 489.791 142.701Z" fill="#B8B0CF"/>
<path d="M273.087 397.871C275.323 402.866 276.676 412.861 278.237 418.576C281.496 430.506 285.895 442.186 291.119 453.357C312.542 499.161 346.942 537.67 390.051 564.1C449.399 600.61 520.82 612.055 588.605 595.915C638.995 583.86 684.08 557.93 716.72 517.35C726.495 505.195 732.625 495.239 740.72 482.067C741.205 493.394 742.485 511.665 739.205 522.27C736.435 527.96 731.02 536.155 727.34 541.425C705.845 571.955 677.48 597.01 644.53 614.57C583.05 647.345 505.015 651.335 439.16 630.74C379.48 612.08 326.01 571.04 296.606 515.49C280.924 485.561 272.458 452.38 271.884 418.597C271.759 413.296 271.614 402.643 273.087 397.871Z" fill="#2B3B8B"/>
<path d="M375.039 396.408C428.461 395.877 482.885 396.567 536.385 396.624L729.175 396.689C730.2 408.688 729.35 424.429 729.785 437.046C718.11 438.024 700.875 437.503 688.705 437.488L618.865 437.474L393.567 437.48C385.026 424.555 378.812 411.497 375.039 396.408Z" fill="#2B3B8B"/>
</g>
<defs>
<clipPath id="clip0_1_4">
<rect width="1024" height="1024" fill="white"/>
</clipPath>
</defs>
</svg>
