<?xml version="1.0" encoding="utf-8" ?><svg xmlns="http://www.w3.org/2000/svg" xmlns:xlink="http://www.w3.org/1999/xlink" viewBox="327 220 730 300"><path fill="#1F1F1F" d="M963.649 230.029C977.279 228.872 991.883 234.252 1002.25 242.775C1007.75 247.181 1012.87 250.925 1019.19 253.957C1024.8 256.649 1046.8 257.534 1047.16 264.374C1043.9 271.187 1032.31 276.776 1027.54 284.68C1023.88 290.734 1022.43 294.709 1019.94 301.162C1014.21 316.039 1006.42 332.338 993.434 342.527C930.659 391.774 840.886 351.001 769.567 355.898C736.438 358.172 698.051 368.298 669.144 382.696C595.046 419.566 535.87 486.88 452.817 505.119C420.766 512.157 367.166 515.765 344.171 486.243C316.073 450.171 337.15 389.729 389.219 395.292C391.597 395.639 394.231 396.328 396.653 397.063C418.541 403.711 430.998 439.063 406.663 450.624C397.491 454.666 384.726 453.611 379.951 443.61C378.79 441.177 378.485 434.035 381.566 432.956C384.385 433.963 386.724 438.392 389.221 440.865C391.158 442.797 393.784 443.878 396.519 443.871C409.243 443.779 413.16 421.794 402.33 413.347C386.763 401.205 367.351 403.803 354.566 418.084C337.701 436.922 339.734 467.751 358.799 483.973C375.72 498.421 399.483 499.805 420.645 498.348C523.253 491.301 588.537 401.806 677.617 362.453C713.823 346.458 747.667 342.219 786.087 336.614C809.597 333.185 836.177 323.566 857.52 313.107C872.228 305.9 887.089 291.339 897.404 278.765C910.68 261.795 921.519 242.479 942.674 234.366C950.212 231.476 955.649 230.617 963.649 230.029ZM824.528 340.855C846.755 344.871 867.472 346.447 889.997 348.522C923.549 350.35 957.806 352.453 984.818 328.373C1001.04 313.914 1002.23 302.721 1011.82 284.437C1014.65 279.048 1021.09 272.51 1025.53 268.283C995.929 262.403 991.463 242.843 963.239 245.043C924.146 251.629 920.513 284.528 891.943 307.732C871.449 324.376 849.508 333.312 824.528 340.855Z"/><path fill="#1F1F1F" d="M968.84 260.874C973.788 260.154 978.389 263.562 979.145 268.505C979.901 273.449 976.528 278.076 971.591 278.868C966.603 279.669 961.918 276.252 961.154 271.257C960.391 266.262 963.841 261.601 968.84 260.874Z"/></svg>
